<svg xmlns="http://www.w3.org/2000/svg" xmlns:xlink="http://www.w3.org/1999/xlink" contentStyleType="text/css" data-diagram-type="DESCRIPTION" height="1150px" preserveAspectRatio="none" style="width:3657px;height:1150px;background:#FFFFFF;" version="1.1" viewBox="0 0 3657 1150" width="3657px" zoomAndPan="magnify"><title>AWS Microservices Architecture - High Level</title><defs/><g><g class="title" data-source-line="1"><text fill="#000000" font-family="sans-serif" font-size="14" font-weight="bold" lengthAdjust="spacing" textLength="321.8496" x="1660.6952" y="23.5352">AWS Microservices Architecture - High Level</text></g><!--cluster VPC--><g class="cluster" data-entity="VPC" data-source-line="15" data-uid="ent0008" id="cluster_VPC"><path d="M1147.15,123.4583 L1176.4918,123.4583 A3.75,3.75 0 0 1 1178.9918,125.9583 L1185.9918,145.9466 L3647.74,145.9466 A2.5,2.5 0 0 1 3650.24,148.4466 L3650.24,809.9583 A2.5,2.5 0 0 1 3647.74,812.4583 L1147.15,812.4583 A2.5,2.5 0 0 1 1144.65,809.9583 L1144.65,125.9583 A2.5,2.5 0 0 1 1147.15,123.4583" fill="none" style="stroke:#000000;stroke-width:1.5;"/><line style="stroke:#000000;stroke-width:1.5;" x1="1144.65" x2="1185.9918" y1="145.9466" y2="145.9466"/><text fill="#000000" font-family="sans-serif" font-size="14" font-weight="bold" lengthAdjust="spacing" textLength="28.3418" x="1148.65" y="138.9934">VPC</text></g><!--cluster Private Subnets--><g class="cluster" data-entity="Private Subnets" data-source-line="19" data-uid="ent0011" id="cluster_Private Subnets"><path d="M1797.95,196.4583 L1910.9363,196.4583 A3.75,3.75 0 0 1 1913.4363,198.9583 L1920.4363,218.9466 L3393.6,218.9466 A2.5,2.5 0 0 1 3396.1,221.4466 L3396.1,645.9583 A2.5,2.5 0 0 1 3393.6,648.4583 L1797.95,648.4583 A2.5,2.5 0 0 1 1795.45,645.9583 L1795.45,198.9583 A2.5,2.5 0 0 1 1797.95,196.4583" fill="none" style="stroke:#000000;stroke-width:1.5;"/><line style="stroke:#000000;stroke-width:1.5;" x1="1795.45" x2="1920.4363" y1="218.9466" y2="218.9466"/><text fill="#000000" font-family="sans-serif" font-size="14" font-weight="bold" lengthAdjust="spacing" textLength="111.9863" x="1799.45" y="211.9934">Private Subnets</text></g><!--entity ALB--><g class="entity" data-entity="ALB" data-source-line="16" data-uid="ent0009" id="entity_ALB"><rect fill="#F1F1F1" height="36.4883" rx="2.5" ry="2.5" style="stroke:#181818;stroke-width:0.5;" width="143.9561" x="1238.64" y="498.2083"/><text fill="#000000" font-family="sans-serif" font-size="14" lengthAdjust="spacing" textLength="123.9561" x="1248.64" y="521.7434">ALB / API Gateway</text></g><!--entity NAT--><g class="entity" data-entity="NAT" data-source-line="17" data-uid="ent0010" id="entity_NAT"><rect fill="#F1F1F1" height="36.4883" rx="2.5" ry="2.5" style="stroke:#181818;stroke-width:0.5;" width="110.002" x="1255.62" y="339.2083"/><text fill="#000000" font-family="sans-serif" font-size="14" lengthAdjust="spacing" textLength="90.002" x="1265.62" y="362.7434">NAT Gateway</text></g><!--entity ECR--><g class="entity" data-entity="ECR" data-source-line="32" data-uid="ent0021" id="entity_ECR"><rect fill="#F1F1F1" height="36.4883" rx="2.5" ry="2.5" style="stroke:#181818;stroke-width:0.5;" width="185.1426" x="2294.08" y="675.2083"/><text fill="#000000" font-family="sans-serif" font-size="14" lengthAdjust="spacing" textLength="165.1426" x="2304.08" y="698.7434">ECR (Container Registry)</text></g><!--entity Secrets--><g class="entity" data-entity="Secrets" data-source-line="33" data-uid="ent0022" id="entity_Secrets"><rect fill="#F1F1F1" height="36.4883" rx="2.5" ry="2.5" style="stroke:#181818;stroke-width:0.5;" width="131.3096" x="3208.19" y="752.2083"/><text fill="#000000" font-family="sans-serif" font-size="14" lengthAdjust="spacing" textLength="111.3096" x="3218.19" y="775.7434">Secrets Manager</text></g><!--entity KMS--><g class="entity" data-entity="KMS" data-source-line="34" data-uid="ent0023" id="entity_KMS"><rect fill="#F1F1F1" height="36.4883" rx="2.5" ry="2.5" style="stroke:#181818;stroke-width:0.5;" width="134.1465" x="3492.1" y="735.2083"/><text fill="#000000" font-family="sans-serif" font-size="14" lengthAdjust="spacing" textLength="114.1465" x="3502.1" y="758.7434">KMS (Encryption)</text></g><!--entity Endpoints--><g class="entity" data-entity="Endpoints" data-source-line="35" data-uid="ent0024" id="entity_Endpoints"><rect fill="#F1F1F1" height="52.9766" rx="2.5" ry="2.5" style="stroke:#181818;stroke-width:0.5;" width="283.9424" x="1168.65" y="206.9683"/><text fill="#000000" font-family="sans-serif" font-size="14" lengthAdjust="spacing" textLength="98.6152" x="1178.65" y="230.5034">VPC Endpoints</text><text fill="#000000" font-family="sans-serif" font-size="14" lengthAdjust="spacing" textLength="263.9424" x="1178.65" y="246.9917">(S3, DynamoDB, ECR, Secrets Manager)</text></g><!--entity Observability--><g class="entity" data-entity="Observability" data-source-line="36" data-uid="ent0025" id="entity_Observability"><rect fill="#F1F1F1" height="52.9766" rx="2.5" ry="2.5" style="stroke:#181818;stroke-width:0.5;" width="186.3047" x="3180.69" y="663.9683"/><text fill="#000000" font-family="sans-serif" font-size="14" lengthAdjust="spacing" textLength="141.3877" x="3190.69" y="687.5034">CloudWatch + X-Ray</text><text fill="#000000" font-family="sans-serif" font-size="14" lengthAdjust="spacing" textLength="166.3047" x="3190.69" y="703.9917">Logging, Metrics, Traces</text></g><!--entity EKS--><g class="entity" data-entity="EKS" data-source-line="20" data-uid="ent0012" id="entity_EKS"><polygon fill="#F1F1F1" points="1811.45,460.9683,1821.45,450.9683,2034.4959,450.9683,2034.4959,503.9448,2024.4959,513.9448,1811.45,513.9448,1811.45,460.9683" style="stroke:#181818;stroke-width:0.5;"/><line style="stroke:#181818;stroke-width:0.5;" x1="2024.4959" x2="2034.4959" y1="460.9683" y2="450.9683"/><line style="stroke:#181818;stroke-width:0.5;" x1="1811.45" x2="2024.4959" y1="460.9683" y2="460.9683"/><line style="stroke:#181818;stroke-width:0.5;" x1="2024.4959" x2="2024.4959" y1="460.9683" y2="513.9448"/><text fill="#000000" font-family="sans-serif" font-size="14" lengthAdjust="spacing" textLength="77.0205" x="1826.45" y="484.5034">EKS Cluster</text><text fill="#000000" font-family="sans-serif" font-size="14" lengthAdjust="spacing" textLength="183.0459" x="1826.45" y="500.9917">(Kubernetes microservices)</text></g><!--entity ECS--><g class="entity" data-entity="ECS" data-source-line="21" data-uid="ent0013" id="entity_ECS"><polygon fill="#F1F1F1" points="1830.87,576.9683,1840.87,566.9683,2015.0673,566.9683,2015.0673,619.9448,2005.0673,629.9448,1830.87,629.9448,1830.87,576.9683" style="stroke:#181818;stroke-width:0.5;"/><line style="stroke:#181818;stroke-width:0.5;" x1="2005.0673" x2="2015.0673" y1="576.9683" y2="566.9683"/><line style="stroke:#181818;stroke-width:0.5;" x1="1830.87" x2="2005.0673" y1="576.9683" y2="576.9683"/><line style="stroke:#181818;stroke-width:0.5;" x1="2005.0673" x2="2005.0673" y1="576.9683" y2="629.9448"/><text fill="#000000" font-family="sans-serif" font-size="14" lengthAdjust="spacing" textLength="91.4785" x="1845.87" y="600.5034">ECS / Fargate</text><text fill="#000000" font-family="sans-serif" font-size="14" lengthAdjust="spacing" textLength="144.1973" x="1845.87" y="616.9917">(Worker jobs / batch)</text></g><!--entity Lambda--><g class="entity" data-entity="Lambda" data-source-line="22" data-uid="ent0014" id="entity_Lambda"><polygon fill="#F1F1F1" points="2754.81,480.2083,2764.81,470.2083,2961.5864,470.2083,2961.5864,506.6966,2951.5864,516.6966,2754.81,516.6966,2754.81,480.2083" style="stroke:#181818;stroke-width:0.5;"/><line style="stroke:#181818;stroke-width:0.5;" x1="2951.5864" x2="2961.5864" y1="480.2083" y2="470.2083"/><line style="stroke:#181818;stroke-width:0.5;" x1="2754.81" x2="2951.5864" y1="480.2083" y2="480.2083"/><line style="stroke:#181818;stroke-width:0.5;" x1="2951.5864" x2="2951.5864" y1="480.2083" y2="516.6966"/><text fill="#000000" font-family="sans-serif" font-size="14" lengthAdjust="spacing" textLength="166.7764" x="2769.81" y="503.7434">Lambda (Event handlers)</text></g><!--entity RDS--><g class="entity" data-entity="RDS" data-source-line="24" data-uid="ent0015" id="entity_RDS"><path d="M2269.5,312.7083 C2269.5,302.7083 2386.6567,302.7083 2386.6567,302.7083 C2386.6567,302.7083 2503.8135,302.7083 2503.8135,312.7083 L2503.8135,338.1966 C2503.8135,348.1966 2386.6567,348.1966 2386.6567,348.1966 C2386.6567,348.1966 2269.5,348.1966 2269.5,338.1966 L2269.5,312.7083" fill="#F1F1F1" style="stroke:#181818;stroke-width:0.5;"/><path d="M2269.5,312.7083 C2269.5,322.7083 2386.6567,322.7083 2386.6567,322.7083 C2386.6567,322.7083 2503.8135,322.7083 2503.8135,312.7083" fill="none" style="stroke:#181818;stroke-width:0.5;"/><text fill="#000000" font-family="sans-serif" font-size="14" lengthAdjust="spacing" textLength="214.3135" x="2279.5" y="340.2434">Amazon Aurora / RDS (Primary)</text></g><!--entity RDSR--><g class="entity" data-entity="RDSR" data-source-line="25" data-uid="ent0016" id="entity_RDSR"><path d="M1841.08,311.7083 C1841.08,301.7083 1922.9736,301.7083 1922.9736,301.7083 C1922.9736,301.7083 2004.8671,301.7083 2004.8671,311.7083 L2004.8671,337.1966 C2004.8671,347.1966 1922.9736,347.1966 1922.9736,347.1966 C1922.9736,347.1966 1841.08,347.1966 1841.08,337.1966 L1841.08,311.7083" fill="#F1F1F1" style="stroke:#181818;stroke-width:0.5;"/><path d="M1841.08,311.7083 C1841.08,321.7083 1922.9736,321.7083 1922.9736,321.7083 C1922.9736,321.7083 2004.8671,321.7083 2004.8671,311.7083" fill="none" style="stroke:#181818;stroke-width:0.5;"/><text fill="#000000" font-family="sans-serif" font-size="14" lengthAdjust="spacing" textLength="143.7871" x="1851.08" y="339.2434">Aurora Read Replicas</text></g><!--entity DDB--><g class="entity" data-entity="DDB" data-source-line="26" data-uid="ent0017" id="entity_DDB"><rect fill="#F1F1F1" height="36.4883" rx="35" ry="35" style="stroke:#181818;stroke-width:0.5;" width="152.7881" x="2310.26" y="231.2083"/><text fill="#000000" font-family="sans-serif" font-size="14" lengthAdjust="spacing" textLength="132.7881" x="2320.26" y="254.7434">DynamoDB (NoSQL)</text></g><!--entity SQS--><g class="entity" data-entity="SQS" data-source-line="27" data-uid="ent0018" id="entity_SQS"><path d="M2321.56,491.2083 L2451.7563,491.2083 C2456.7563,491.2083 2456.7563,504.4524 2456.7563,504.4524 C2456.7563,504.4524 2456.7563,517.6966 2451.7563,517.6966 L2321.56,517.6966 C2316.56,517.6966 2316.56,504.4524 2316.56,504.4524 C2316.56,504.4524 2316.56,491.2083 2321.56,491.2083" fill="#F1F1F1" style="stroke:#181818;stroke-width:0.5;"/><path d="M2451.7563,491.2083 C2446.7563,491.2083 2446.7563,504.4524 2446.7563,504.4524 C2446.7563,517.6966 2451.7563,517.6966 2451.7563,517.6966" fill="none" style="stroke:#181818;stroke-width:0.5;"/><text fill="#000000" font-family="sans-serif" font-size="14" lengthAdjust="spacing" textLength="120.1963" x="2321.56" y="509.7434">SQS (Work queue)</text></g><!--entity SNS--><g class="entity" data-entity="SNS" data-source-line="28" data-uid="ent0019" id="entity_SNS"><path d="M3172.59,435.2083 L3375.0968,435.2083 C3380.0968,435.2083 3380.0968,448.4524 3380.0968,448.4524 C3380.0968,448.4524 3380.0968,461.6966 3375.0968,461.6966 L3172.59,461.6966 C3167.59,461.6966 3167.59,448.4524 3167.59,448.4524 C3167.59,448.4524 3167.59,435.2083 3172.59,435.2083" fill="#F1F1F1" style="stroke:#181818;stroke-width:0.5;"/><path d="M3375.0968,435.2083 C3370.0968,435.2083 3370.0968,448.4524 3370.0968,448.4524 C3370.0968,461.6966 3375.0968,461.6966 3375.0968,461.6966" fill="none" style="stroke:#181818;stroke-width:0.5;"/><text fill="#000000" font-family="sans-serif" font-size="14" lengthAdjust="spacing" textLength="192.5068" x="3172.59" y="453.7434">SNS / EventBridge (Pub/Sub)</text></g><!--entity S3--><g class="entity" data-entity="S3" data-source-line="29" data-uid="ent0020" id="entity_S3"><rect fill="#F1F1F1" height="36.4883" rx="35" ry="35" style="stroke:#181818;stroke-width:0.5;" width="234.3203" x="2269.49" y="383.2083"/><text fill="#000000" font-family="sans-serif" font-size="14" lengthAdjust="spacing" textLength="214.3203" x="2279.49" y="406.7434">S3 (Assets, Backups, Data Lake)</text></g><!--entity User--><g class="entity" data-entity="User" data-source-line="6" data-uid="ent0002" id="entity_User"><ellipse cx="78.9531" cy="495.7083" fill="#F1F1F1" rx="8" ry="8" style="stroke:#181818;stroke-width:0.5;"/><path d="M78.9531,503.7083 L78.9531,530.7083 M65.9531,511.7083 L91.9531,511.7083 M78.9531,530.7083 L65.9531,545.7083 M78.9531,530.7083 L91.9531,545.7083" fill="none" style="stroke:#181818;stroke-width:0.5;"/><text fill="#000000" font-family="sans-serif" font-size="14" lengthAdjust="spacing" textLength="145.9063" x="6" y="560.7434">External User / Client</text></g><!--entity CDN--><g class="entity" data-entity="CDN" data-source-line="8" data-uid="ent0003" id="entity_CDN"><path d="M222.1096,454.2178 C225.7506,449.2811 229.4,448.7318 233.2217,454.0214 C236.8612,448.5805 242.4233,448.5421 245.0638,455.0144 C247.2516,448.63 252.3275,447.3697 256.6636,452.9278 C260.5681,446.2302 265.6747,446.1945 270.044,452.4476 C273.6672,447.7193 278.4016,447.2047 281.2153,453.2844 C284.7157,447.1432 288.3036,446.7628 292.897,452.1797 C297.0338,446.8008 300.6338,446.7031 304.7987,452.1489 C310.0611,446.0313 314.3956,446.5186 318.2537,453.5824 C320.8705,448.0636 325.796,447.9027 328.973,453.0177 C332.0368,447.1786 337.661,446.4899 341.3844,452.316 C346.0841,447.8113 349.7868,447.697 353.2334,453.7256 C357.8352,447.793 361.6225,449.1674 365.0631,454.9029 C367.9422,448.6557 372.9375,448.0924 376.688,454.0745 C381.3927,449.8222 385.3345,450.4355 387.988,456.3536 C395.9962,458.0439 397.3515,462.6778 393.9931,469.5432 C400.1497,476.4282 398.3858,484.8689 388.4984,486.5792 C385.2267,491.7223 379.499,492.9843 376.0221,486.8053 C372.8851,492.404 366.9658,491.5916 363.9069,486.7149 C361.3104,492.6715 356.419,492.9982 352.5642,488.0202 C349.667,493.4259 344.042,493.9329 340.5063,488.7472 C336.6888,494.004 332.9835,493.4878 329.5641,488.329 C327.4783,493.591 322.2888,496.0076 318.0161,490.7237 C313.7718,497.7656 308.7793,497.6869 304.2278,491.033 C299.4682,496.3532 295.3455,495.1618 292.663,488.95 C288.8909,493.5343 285.0812,493.1724 281.8077,488.3732 C278.0291,494.8243 274.0939,494.9274 270.0255,488.6412 C266.035,493.0216 261.7266,492.8246 258.6916,487.5228 C255.173,494.3916 249.7848,493.1454 246.0137,487.7845 C241.2787,493.6914 236.2692,491.8916 233.294,485.9028 C230.1725,491.5968 226.7034,491.4214 222.9049,486.5698 C214.9466,484.0198 212.3777,478.5639 217.5027,471.3654 C210.3685,463.8705 212.7521,457.2819 222.1096,454.2178" fill="#F1F1F1" style="stroke:#181818;stroke-width:0.5;"/><text fill="#000000" font-family="sans-serif" font-size="14" lengthAdjust="spacing" textLength="152.4619" x="227.91" y="474.7434">Route53 + CloudFront</text></g><!--entity WAF--><g class="entity" data-entity="WAF" data-source-line="9" data-uid="ent0004" id="entity_WAF"><rect fill="#F1F1F1" height="36.4883" rx="2.5" ry="2.5" style="stroke:#181818;stroke-width:0.5;" width="49.1416" x="653.01" y="451.2083"/><text fill="#000000" font-family="sans-serif" font-size="14" lengthAdjust="spacing" textLength="29.1416" x="663.01" y="474.7434">WAF</text></g><!--entity CICD--><g class="entity" data-entity="CICD" data-source-line="43" data-uid="ent0027" id="entity_CICD"><rect fill="#F1F1F1" height="36.4883" rx="2.5" ry="2.5" style="stroke:#181818;stroke-width:0.5;" width="284.4277" x="535.37" y="874.2083"/><text fill="#000000" font-family="sans-serif" font-size="14" lengthAdjust="spacing" textLength="264.4277" x="545.37" y="897.7434">CI/CD - GitHub Actions / CodePipeline</text></g><!--entity GitOps--><g class="entity" data-entity="GitOps" data-source-line="44" data-uid="ent0028" id="entity_GitOps"><rect fill="#F1F1F1" height="36.4883" rx="2.5" ry="2.5" style="stroke:#181818;stroke-width:0.5;" width="177.6777" x="1221.78" y="836.2083"/><text fill="#000000" font-family="sans-serif" font-size="14" lengthAdjust="spacing" textLength="157.6777" x="1231.78" y="859.7434">ArgoCD / Flux (GitOps)</text></g><g class="entity" data-entity="GMN57" data-source-line="98" data-uid="ent0058" id="entity_GMN57"><path d="M982.8,43.4883 L982.8,99.4199 L1638.4514,99.4199 L1638.4514,53.4883 L1628.4514,43.4883 L982.8,43.4883" fill="#FEFFDD" style="stroke:#181818;stroke-width:0.5;"/><path d="M1628.4514,43.4883 L1628.4514,53.4883 L1638.4514,53.4883 L1628.4514,43.4883" fill="#FEFFDD" style="stroke:#181818;stroke-width:1;"/><text fill="#000000" font-family="sans-serif" font-size="13" lengthAdjust="spacing" textLength="434.0718" x="988.8" y="61.0566">- VPC split into Public (ALB, NAT) and Private subnets (compute, DB).</text><text fill="#000000" font-family="sans-serif" font-size="13" lengthAdjust="spacing" textLength="391.3457" x="988.8" y="76.3672">- Use Security Groups (least privilege) and NACLs for subnets.</text><text fill="#000000" font-family="sans-serif" font-size="13" lengthAdjust="spacing" textLength="634.6514" x="988.8" y="91.6777">- Use PrivateLink / VPC Endpoints for S3, DynamoDB, ECR, Secrets Manager to avoid internet egress.</text></g><!--link User to CDN--><g class="link" data-entity-1="User" data-entity-2="CDN" data-source-line="11" data-uid="lnk5" id="link_User_CDN"><path d="M152.11,507.3483 C171.34,502.5283 186.5403,498.7083 206.6303,493.6683" fill="none" id="User-to-CDN" style="stroke:#181818;stroke-width:1;"/><polygon fill="#181818" points="212.45,492.2083,202.7472,490.5185,207.6003,493.4249,204.6938,498.278,212.45,492.2083" style="stroke:#181818;stroke-width:1;"/></g><!--link CDN to WAF--><g class="link" data-entity-1="CDN" data-entity-2="WAF" data-source-line="12" data-uid="lnk6" id="link_CDN_WAF"><path d="M395.53,480.8983 C480.35,484.1783 595.6256,483.3966 646.5956,477.0766" fill="none" id="CDN-to-WAF" style="stroke:#181818;stroke-width:1;"/><polygon fill="#181818" points="652.55,476.3383,643.1262,473.4761,647.588,476.9535,644.1106,481.4154,652.55,476.3383" style="stroke:#181818;stroke-width:1;"/></g><!--link CDN to WAF--><g class="link" data-entity-1="CDN" data-entity-2="WAF" data-source-line="13" data-uid="lnk7" id="link_CDN_WAF"><path d="M395.53,458.0083 C480.35,454.7283 595.6256,455.52 646.5956,461.84" fill="none" id="CDN-to-WAF-1" style="stroke:#181818;stroke-width:1;"/><polygon fill="#181818" points="652.55,462.5783,644.1106,457.5012,647.588,461.963,643.1262,465.4404,652.55,462.5783" style="stroke:#181818;stroke-width:1;"/></g><!--link WAF to ALB--><g class="link" data-entity-1="WAF" data-entity-2="ALB" data-source-line="40" data-uid="lnk26" id="link_WAF_ALB"><path d="M702.55,471.2383 C790.52,477.7883 1091.8166,500.2327 1232.4266,510.7027" fill="none" id="WAF-to-ALB" style="stroke:#181818;stroke-width:1;"/><polygon fill="#181818" points="1238.41,511.1483,1229.7319,506.491,1233.4238,510.777,1229.1378,514.4689,1238.41,511.1483" style="stroke:#181818;stroke-width:1;"/></g><!--link ALB to EKS--><g class="link" data-entity-1="ALB" data-entity-2="EKS" data-source-line="47" data-uid="lnk29" id="link_ALB_EKS"><path d="M1382.83,512.4883 C1488.17,506.6183 1680.4793,495.9017 1804.9993,488.9717" fill="none" id="ALB-to-EKS" style="stroke:#181818;stroke-width:1;"/><polygon fill="#181818" points="1810.99,488.6383,1801.7816,485.1446,1805.9977,488.9161,1802.2262,493.1322,1810.99,488.6383" style="stroke:#181818;stroke-width:1;"/><text fill="#000000" font-family="sans-serif" font-size="13" lengthAdjust="spacing" textLength="40.1807" x="1703.95" y="487.2366">HTTPS</text></g><!--link ALB to EKS--><g class="link" data-entity-1="ALB" data-entity-2="EKS" data-source-line="81" data-uid="lnk53" id="link_ALB_EKS"><path d="M1382.95,523.5583 C1475.02,531.2783 1639.98,540.1883 1779.45,521.4583 C1791.91,519.7783 1798.9689,518.6466 1811.6989,515.7566" fill="none" id="ALB-to-EKS-1" style="stroke:#181818;stroke-width:1;"/><polygon fill="#181818" points="1817.55,514.4283,1807.8878,512.52,1812.6741,515.5352,1809.6589,520.3215,1817.55,514.4283" style="stroke:#181818;stroke-width:1;"/><text fill="#000000" font-family="sans-serif" font-size="13" lengthAdjust="spacing" textLength="109.1353" x="1669.45" y="518.0266">Microservice APIs</text></g><!--link ALB to ECS--><g class="link" data-entity-1="ALB" data-entity-2="ECS" data-source-line="48" data-uid="lnk30" id="link_ALB_ECS"><path d="M1382.83,526.0183 C1493.84,540.9383 1702.1034,568.9197 1824.4534,585.3497" fill="none" id="ALB-to-ECS" style="stroke:#181818;stroke-width:1;"/><polygon fill="#181818" points="1830.4,586.1483,1822.0124,580.986,1825.4445,585.4828,1820.9477,588.9149,1830.4,586.1483" style="stroke:#181818;stroke-width:1;"/><text fill="#000000" font-family="sans-serif" font-size="13" lengthAdjust="spacing" textLength="40.1807" x="1703.95" y="561.3666">HTTPS</text></g><!--link ALB to Lambda--><g class="link" data-entity-1="ALB" data-entity-2="Lambda" data-source-line="49" data-uid="lnk31" id="link_ALB_Lambda"><path d="M1376.51,497.7783 C1444.13,477.0183 1552.06,440.1783 1638.45,393.4583 C1710.62,354.4183 1712.09,316.9183 1787.45,284.4583 C2081.28,157.8583 2201.66,108.2583 2503.81,213.4583 C2654.62,265.9583 2785.6043,408.008 2834.1743,465.408" fill="none" id="ALB-to-Lambda" style="stroke:#181818;stroke-width:1;"/><polygon fill="#181818" points="2838.05,469.9883,2835.29,460.5341,2834.8203,466.1714,2829.1829,465.7016,2838.05,469.9883" style="stroke:#181818;stroke-width:1;"/><text fill="#000000" font-family="sans-serif" font-size="13" lengthAdjust="spacing" textLength="35.2549" x="2134.49" y="152.8766">Proxy</text></g><!--link EKS to RDS--><g class="link" data-entity-1="EKS" data-entity-2="RDS" data-source-line="52" data-uid="lnk32" id="link_EKS_RDS"><path d="M1950.15,450.6583 C1975.96,421.7783 2018.16,380.6883 2064.49,360.4583 C2128.49,332.5083 2200.1928,323.6512 2263.1428,321.7312" fill="none" id="EKS-to-RDS" style="stroke:#181818;stroke-width:1;"/><polygon fill="#181818" points="2269.14,321.5483,2260.0222,317.8245,2264.1423,321.7007,2260.2661,325.8208,2269.14,321.5483" style="stroke:#181818;stroke-width:1;"/><text fill="#000000" font-family="sans-serif" font-size="13" lengthAdjust="spacing" textLength="24.0322" x="2139.99" y="319.8766">SQL</text></g><!--link EKS to DDB--><g class="link" data-entity-1="EKS" data-entity-2="DDB" data-source-line="53" data-uid="lnk33" id="link_EKS_DDB"><path d="M1959.3,450.6283 C1982.74,428.1883 2013.03,396.5283 2034.49,364.4583 C2052.41,337.6783 2038.8,317.8983 2064.49,298.4583 C2102.05,270.0383 2221.2912,258.204 2303.8212,253.164" fill="none" id="EKS-to-DDB" style="stroke:#181818;stroke-width:1;"/><polygon fill="#181818" points="2309.81,252.7983,2300.5829,249.3543,2304.8193,253.1031,2301.0706,257.3394,2309.81,252.7983" style="stroke:#181818;stroke-width:1;"/><text fill="#000000" font-family="sans-serif" font-size="13" lengthAdjust="spacing" textLength="48.4326" x="2127.99" y="255.0266">Get/Put</text></g><!--link EKS to S3--><g class="link" data-entity-1="EKS" data-entity-2="S3" data-source-line="54" data-uid="lnk34" id="link_EKS_S3"><path d="M1965.67,450.6183 C1992.35,432.2983 2028.59,411.0583 2064.49,401.4583 C2130.74,383.7283 2201.4829,382.6452 2263.3229,386.7052" fill="none" id="EKS-to-S3" style="stroke:#181818;stroke-width:1;"/><polygon fill="#181818" points="2269.31,387.0983,2260.5914,382.5173,2264.3207,386.7707,2260.0673,390.5001,2269.31,387.0983" style="stroke:#181818;stroke-width:1;"/><text fill="#000000" font-family="sans-serif" font-size="13" lengthAdjust="spacing" textLength="100.1724" x="2101.99" y="381.6266">Get/Put Objects</text></g><!--link EKS to SQS--><g class="link" data-entity-1="EKS" data-entity-2="SQS" data-source-line="55" data-uid="lnk35" id="link_EKS_SQS"><path d="M2034.85,487.7383 C2122.36,491.9083 2235.7268,497.3126 2310.2068,500.8626" fill="none" id="EKS-to-SQS" style="stroke:#181818;stroke-width:1;"/><polygon fill="#181818" points="2316.2,501.1483,2307.4006,496.7243,2311.2057,500.9102,2307.0198,504.7153,2316.2,501.1483" style="stroke:#181818;stroke-width:1;"/><text fill="#000000" font-family="sans-serif" font-size="13" lengthAdjust="spacing" textLength="29.9482" x="2137.49" y="486.1366">Push</text></g><!--link EKS to SQS--><g class="link" data-entity-1="EKS" data-entity-2="SQS" data-source-line="82" data-uid="lnk54" id="link_EKS_SQS"><path d="M2034.96,466.5383 C2095.6,460.3383 2171.91,456.5883 2239.49,465.4583 C2276.08,470.2483 2310.8098,479.7173 2339.8698,488.9173" fill="none" id="EKS-to-SQS-1" style="stroke:#181818;stroke-width:1;"/><polygon fill="#181818" points="2345.59,490.7283,2338.217,484.1984,2340.8232,489.2192,2335.8024,491.8253,2345.59,490.7283" style="stroke:#181818;stroke-width:1;"/><text fill="#000000" font-family="sans-serif" font-size="13" lengthAdjust="spacing" textLength="173.7861" x="2065.49" y="456.7766">Enqueue long-running jobs</text></g><!--link EKS to SNS--><g class="link" data-entity-1="EKS" data-entity-2="SNS" data-source-line="56" data-uid="lnk36" id="link_EKS_SNS"><path d="M2004.58,450.5583 C2023.91,444.2983 2044.69,438.6783 2064.49,435.4583 C2141.26,422.9583 2161.76,432.8683 2239.49,435.4583 C2252.85,435.8983 2256.14,436.9983 2269.49,437.4583 C2655.09,450.7383 2752,426.1983 3137.59,439.4583 C3147.23,439.7883 3151.2687,439.9157 3161.2987,440.4557" fill="none" id="EKS-to-SNS" style="stroke:#181818;stroke-width:1;"/><polygon fill="#181818" points="3167.29,440.7783,3158.5181,436.3002,3162.2972,440.5095,3158.088,444.2887,3167.29,440.7783" style="stroke:#181818;stroke-width:1;"/><text fill="#000000" font-family="sans-serif" font-size="13" lengthAdjust="spacing" textLength="45.646" x="2606.81" y="434.6466">Publish</text></g><!--link ECS to SQS--><g class="link" data-entity-1="ECS" data-entity-2="SQS" data-source-line="57" data-uid="lnk37" id="link_ECS_SQS"><path d="M2015.38,625.0683 C2083.17,639.0383 2174.68,645.1683 2239.49,600.4583 C2270.41,579.1283 2240.21,544.9683 2269.49,521.4583 C2282.68,510.8583 2293.6015,506.2721 2310.3515,503.6621" fill="none" id="ECS-to-SQS" style="stroke:#181818;stroke-width:1;"/><polygon fill="#181818" points="2316.28,502.7383,2306.7715,500.1716,2311.3396,503.5081,2308.0032,508.0763,2316.28,502.7383" style="stroke:#181818;stroke-width:1;"/><text fill="#000000" font-family="sans-serif" font-size="13" lengthAdjust="spacing" textLength="59.1221" x="2122.49" y="597.0266">Consume</text></g><!--link ECS to SQS--><g class="link" data-entity-1="ECS" data-entity-2="SQS" data-source-line="83" data-uid="lnk55" id="link_ECS_SQS"><path d="M2015.26,576.1783 C2084.7,559.6983 2182.76,537.4383 2269.49,521.4583 C2284.53,518.6783 2294.7859,516.9651 2310.1759,514.6651" fill="none" id="ECS-to-SQS-1" style="stroke:#181818;stroke-width:1;"/><polygon fill="#181818" points="2316.11,513.7783,2306.6176,511.1525,2311.1649,514.5173,2307.8001,519.0646,2316.11,513.7783" style="stroke:#181818;stroke-width:1;"/><text fill="#000000" font-family="sans-serif" font-size="13" lengthAdjust="spacing" textLength="78.5078" x="2112.99" y="525.2166">Process jobs</text></g><!--link Lambda to SNS--><g class="link" data-entity-1="Lambda" data-entity-2="SNS" data-source-line="58" data-uid="lnk38" id="link_Lambda_SNS"><path d="M2961.98,482.2683 C3024.55,475.4683 3098.3352,467.4373 3161.3852,460.5773" fill="none" id="Lambda-to-SNS" style="stroke:#181818;stroke-width:1;"/><polygon fill="#181818" points="3167.35,459.9283,3157.9701,456.9252,3162.3793,460.4691,3158.8355,464.8783,3167.35,459.9283" style="stroke:#181818;stroke-width:1;"/><text fill="#000000" font-family="sans-serif" font-size="13" lengthAdjust="spacing" textLength="111.5854" x="3009.09" y="460.8666">Publish/Consume</text></g><!--link EKS to ECR--><g class="link" data-entity-1="EKS" data-entity-2="ECR" data-source-line="61" data-uid="lnk39" id="link_EKS_ECR"><path d="M1995.22,514.3083 C2010.01,523.7683 2024.2,535.4383 2034.49,549.4583 C2067.55,594.4583 2021.75,635.5283 2064.49,671.4583 C2098.08,699.6883 2205.2634,701.7588 2287.7834,698.9988" fill="none" id="EKS-to-ECR" style="stroke:#181818;stroke-width:1;"/><polygon fill="#181818" points="2293.78,698.7983,2284.6513,695.1014,2288.7828,698.9654,2284.9187,703.0969,2293.78,698.7983" style="stroke:#181818;stroke-width:1;"/><text fill="#000000" font-family="sans-serif" font-size="13" lengthAdjust="spacing" textLength="71.9316" x="2116.49" y="668.0266">Pull images</text></g><!--link ECS to ECR--><g class="link" data-entity-1="ECS" data-entity-2="ECR" data-source-line="62" data-uid="lnk40" id="link_ECS_ECR"><path d="M1946.62,630.2283 C1971.4,661.9783 2014.36,708.8183 2064.49,728.4583 C2156.41,764.4483 2268.0705,736.3721 2332.4205,714.0821" fill="none" id="ECS-to-ECR" style="stroke:#181818;stroke-width:1;"/><polygon fill="#181818" points="2338.09,712.1183,2328.2765,711.2844,2333.3654,713.7548,2330.895,718.8437,2338.09,712.1183" style="stroke:#181818;stroke-width:1;"/><text fill="#000000" font-family="sans-serif" font-size="13" lengthAdjust="spacing" textLength="71.9316" x="2116.49" y="725.0266">Pull images</text></g><!--link CICD to ECR--><g class="link" data-entity-1="CICD" data-entity-2="ECR" data-source-line="63" data-uid="lnk41" id="link_CICD_ECR"><path d="M820.02,899.7983 C1007.55,907.7883 1348.59,916.2583 1638.45,890.4583 C1701.84,884.8083 1717.16,878.5483 1779.45,865.4583 C1985.39,822.1783 2039.36,818.4883 2239.49,753.4583 C2275.88,741.6283 2310.5312,727.3018 2339.5212,714.5018" fill="none" id="CICD-to-ECR" style="stroke:#181818;stroke-width:1;"/><polygon fill="#181818" points="2345.01,712.0783,2335.1612,712.0543,2340.436,714.0978,2338.3925,719.3727,2345.01,712.0783" style="stroke:#181818;stroke-width:1;"/><text fill="#000000" font-family="sans-serif" font-size="13" lengthAdjust="spacing" textLength="79.1108" x="1684.45" y="862.0266">Push images</text></g><!--link CICD to GitOps--><g class="link" data-entity-1="CICD" data-entity-2="GitOps" data-source-line="64" data-uid="lnk42" id="link_CICD_GitOps"><path d="M820.2,883.9283 C943.2,876.5183 1111.5009,866.3894 1215.4909,860.1194" fill="none" id="CICD-to-GitOps" style="stroke:#181818;stroke-width:1;"/><polygon fill="#181818" points="1221.48,859.7583,1212.2556,856.3072,1216.4891,860.0592,1212.7371,864.2927,1221.48,859.7583" style="stroke:#181818;stroke-width:1;"/><text fill="#000000" font-family="sans-serif" font-size="13" lengthAdjust="spacing" textLength="101.2769" x="850.8" y="873.4266">Apply manifests</text></g><!--link GitOps to EKS--><g class="link" data-entity-1="GitOps" data-entity-2="EKS" data-source-line="65" data-uid="lnk43" id="link_GitOps_EKS"><path d="M1399.7,867.2583 C1509.12,877.5283 1692.04,874.9583 1779.45,761.4583 C1793.83,742.7783 1774.66,569.2583 1787.45,549.4583 C1796.86,534.8783 1805.3284,526.4574 1820.2984,517.3874" fill="none" id="GitOps-to-EKS" style="stroke:#181818;stroke-width:1;"/><polygon fill="#181818" points="1825.43,514.2783,1815.6598,515.5209,1821.1537,516.8692,1819.8053,522.363,1825.43,514.2783" style="stroke:#181818;stroke-width:1;"/><text fill="#000000" font-family="sans-serif" font-size="13" lengthAdjust="spacing" textLength="28.52" x="1709.95" y="758.0266">Sync</text></g><!--link EKS to Secrets--><g class="link" data-entity-1="EKS" data-entity-2="Secrets" data-source-line="68" data-uid="lnk44" id="link_EKS_Secrets"><path d="M1993.05,514.3783 C2008.28,523.9383 2023.22,535.6283 2034.49,549.4583 C2059.56,580.1683 2032.09,610.6183 2064.49,633.4583 C2064.49,633.4583 2724.81,633.4583 2724.81,633.4583 C2846.47,649.3683 2872.57,674.6583 2991.59,704.4583 C3065.54,722.9683 3144.9802,741.4342 3202.0702,754.4542" fill="none" id="EKS-to-Secrets" style="stroke:#181818;stroke-width:1;"/><polygon fill="#181818" points="3207.92,755.7883,3200.0347,749.8872,3203.0452,754.6765,3198.2559,757.687,3207.92,755.7883" style="stroke:#181818;stroke-width:1;"/><text fill="#000000" font-family="sans-serif" font-size="13" lengthAdjust="spacing" textLength="144.4155" x="2557.31" y="630.0266">Read secrets (IAM role)</text></g><!--link ECS to Secrets--><g class="link" data-entity-1="ECS" data-entity-2="Secrets" data-source-line="69" data-uid="lnk45" id="link_ECS_Secrets"><path d="M1941.64,630.2483 C1964.46,667.6683 2008.05,727.9683 2064.49,753.4583 C2270.76,846.6083 2981.6312,795.3225 3201.9412,776.7425" fill="none" id="ECS-to-Secrets" style="stroke:#181818;stroke-width:1;"/><polygon fill="#181818" points="3207.92,776.2383,3198.6157,773.0088,3202.9377,776.6585,3199.288,780.9805,3207.92,776.2383" style="stroke:#181818;stroke-width:1;"/><text fill="#000000" font-family="sans-serif" font-size="13" lengthAdjust="spacing" textLength="144.4155" x="2557.31" y="801.2066">Read secrets (IAM role)</text></g><!--link Lambda to Secrets--><g class="link" data-entity-1="Lambda" data-entity-2="Secrets" data-source-line="70" data-uid="lnk46" id="link_Lambda_Secrets"><path d="M2957.26,517.0283 C2958.75,518.1183 2960.19,519.2583 2961.59,520.4583 C2986.71,541.8983 2971.18,562.4783 2991.59,588.4583 C3042.12,652.7583 3077.81,644.6383 3137.59,700.4583 C3152.32,714.2083 3150.83,723.2683 3167.59,734.4583 C3179.72,742.5483 3188.2046,746.9387 3202.1046,752.0187" fill="none" id="Lambda-to-Secrets" style="stroke:#181818;stroke-width:1;"/><polygon fill="#181818" points="3207.74,754.0783,3200.6599,747.232,3203.0438,752.362,3197.9138,754.7459,3207.74,754.0783" style="stroke:#181818;stroke-width:1;"/><text fill="#000000" font-family="sans-serif" font-size="13" lengthAdjust="spacing" textLength="144.4155" x="2992.59" y="585.0266">Read secrets (IAM role)</text></g><!--link Secrets to KMS--><g class="link" data-entity-1="Secrets" data-entity-2="KMS" data-source-line="71" data-uid="lnk47" id="link_Secrets_KMS"><path d="M3339.84,766.5583 C3385.43,763.8183 3440.1708,760.5376 3486.0108,757.7876" fill="none" id="Secrets-to-KMS" style="stroke:#181818;stroke-width:1;"/><polygon fill="#181818" points="3492,757.4283,3482.7766,753.9744,3487.009,757.7277,3483.2557,761.9601,3492,757.4283" style="stroke:#181818;stroke-width:1;"/><text fill="#000000" font-family="sans-serif" font-size="13" lengthAdjust="spacing" textLength="48.7944" x="3413.1" y="756.0066">Decrypt</text></g><!--link EKS to Observability--><g class="link" data-entity-1="EKS" data-entity-2="Observability" data-source-line="74" data-uid="lnk48" id="link_EKS_Observability"><path d="M1993.58,514.3583 C2008.71,523.8883 2023.46,535.5883 2034.49,549.4583 C2061.01,582.7783 2030.48,614.8383 2064.49,640.4583 C2074.25,647.7983 2491.61,656.9583 2503.81,657.4583 C2748,667.4183 3029.7558,679.724 3174.2258,686.094" fill="none" id="EKS-to-Observability" style="stroke:#181818;stroke-width:1;"/><polygon fill="#181818" points="3180.22,686.3583,3171.4049,681.9657,3175.2249,686.138,3171.0525,689.958,3180.22,686.3583" style="stroke:#181818;stroke-width:1;"/><text fill="#000000" font-family="sans-serif" font-size="13" lengthAdjust="spacing" textLength="133.0151" x="2562.81" y="655.3266">Metrics, Logs, Traces</text></g><!--link ECS to Observability--><g class="link" data-entity-1="ECS" data-entity-2="Observability" data-source-line="75" data-uid="lnk49" id="link_ECS_Observability"><path d="M1938.17,630.3483 C1958.96,672.6183 2002.13,745.3383 2064.49,775.4583 C2460.29,966.5883 3009.5944,791.0913 3200.0144,719.4413" fill="none" id="ECS-to-Observability" style="stroke:#181818;stroke-width:1;"/><polygon fill="#181818" points="3205.63,717.3283,3195.7979,716.754,3200.9503,719.0891,3198.6152,724.2415,3205.63,717.3283" style="stroke:#181818;stroke-width:1;"/><text fill="#000000" font-family="sans-serif" font-size="13" lengthAdjust="spacing" textLength="133.0151" x="2562.81" y="839.9166">Metrics, Logs, Traces</text></g><!--link Lambda to Observability--><g class="link" data-entity-1="Lambda" data-entity-2="Observability" data-source-line="76" data-uid="lnk50" id="link_Lambda_Observability"><path d="M2961.9,508.8783 C3030.09,521.0283 3111.66,539.8383 3137.59,563.4583 C3167.2,590.4383 3139.84,619.5583 3167.59,648.4583 C3173.11,654.1983 3174.4374,655.9896 3181.3074,660.2996" fill="none" id="Lambda-to-Observability" style="stroke:#181818;stroke-width:1;"/><polygon fill="#181818" points="3186.39,663.4883,3180.8919,655.3169,3182.1545,660.8311,3176.6404,662.0937,3186.39,663.4883" style="stroke:#181818;stroke-width:1;"/><text fill="#000000" font-family="sans-serif" font-size="13" lengthAdjust="spacing" textLength="79.1235" x="3025.09" y="511.9266">Logs, Traces</text></g><!--link RDS to Observability--><g class="link" data-entity-1="RDS" data-entity-2="Observability" data-source-line="77" data-uid="lnk51" id="link_RDS_Observability"><path d="M2483.31,348.6583 C2490.95,353.2783 2497.96,358.8183 2503.81,365.4583 C2546.78,414.1483 2487.56,462.8683 2533.81,508.4583 C2605.08,578.6883 2655.53,538.9983 2754.81,551.4583 C2760.1,552.1183 3133.27,570.3483 3137.59,573.4583 C3166.73,594.4283 3142.19,623.0783 3167.59,648.4583 C3173.37,654.2283 3174.9016,656.1138 3182.0316,660.4438" fill="none" id="RDS-to-Observability" style="stroke:#181818;stroke-width:1;"/><polygon fill="#181818" points="3187.16,663.5583,3181.5437,655.4677,3182.8863,660.9629,3177.3911,662.3056,3187.16,663.5583" style="stroke:#181818;stroke-width:1;"/><text fill="#000000" font-family="sans-serif" font-size="13" lengthAdjust="spacing" textLength="134.6719" x="2791.2" y="548.0266">Enhanced monitoring</text></g><!--link User to ALB--><g class="link" data-entity-1="User" data-entity-2="ALB" data-source-line="80" data-uid="lnk52" id="link_User_ALB"><path d="M152.28,524.9283 C370.57,523.3283 1015.0102,518.6122 1232.1502,517.0222" fill="none" id="User-to-ALB" style="stroke:#181818;stroke-width:1;"/><polygon fill="#181818" points="1238.15,516.9783,1229.121,513.0443,1233.1501,517.0149,1229.1795,521.0441,1238.15,516.9783" style="stroke:#181818;stroke-width:1;"/><text fill="#000000" font-family="sans-serif" font-size="13" lengthAdjust="spacing" textLength="78.1841" x="426.37" y="518.9166">API requests</text></g><!--link SQS to Lambda--><g class="link" data-entity-1="SQS" data-entity-2="Lambda" data-source-line="84" data-uid="lnk56" id="link_SQS_Lambda"><path d="M2457.19,502.8283 C2535.82,500.9783 2658.6016,498.1087 2748.7416,495.9987" fill="none" id="SQS-to-Lambda" style="stroke:#181818;stroke-width:1;"/><polygon fill="#181818" points="2754.74,495.8583,2745.6489,492.07,2749.7414,495.9753,2745.8361,500.0678,2754.74,495.8583" style="stroke:#181818;stroke-width:1;"/><text fill="#000000" font-family="sans-serif" font-size="13" lengthAdjust="spacing" textLength="189.8584" x="2534.81" y="493.2766">Trigger on message (optional)</text></g><!--link VPC to GMN57--><g class="link" data-entity-1="VPC" data-entity-2="GMN57" data-source-line="98" data-uid="lnk59" id="link_VPC_GMN57"><path d="M1310.62,145.8434 C1310.62,145.3202 1310.62,122.1127 1310.62,121.5895 C1310.62,120.5433 1310.62,119.497 1310.62,118.4508 C1310.62,116.3583 1310.62,114.2658 1310.62,112.1733 C1310.62,107.9883 1310.62,103.8033 1310.62,99.6183" fill="none" id="VPC-GMN57" style="stroke:#181818;stroke-width:1;stroke-dasharray:7,7;"/></g><g class="legend" data-source-line="86"><rect fill="#DDDDDD" height="145.9063" rx="7.5" ry="7.5" style="stroke:#000000;stroke-width:1;" width="337.4824" x="12" y="984.5883"/><text fill="#000000" font-family="sans-serif" font-size="14" lengthAdjust="spacing" textLength="49.2939" x="21.4297" y="1005.1234">Legend</text><text fill="#000000" font-family="sans-serif" font-size="14" lengthAdjust="spacing" textLength="115.0967" x="21.4297" y="1021.6117">ALB/API Gateway</text><text fill="#000000" font-family="sans-serif" font-size="14" lengthAdjust="spacing" textLength="86.625" x="193.7979" y="1021.6117">Edge ingress</text><text fill="#000000" font-family="sans-serif" font-size="14" lengthAdjust="spacing" textLength="65.2832" x="21.4297" y="1038.1">EKS / ECS</text><text fill="#000000" font-family="sans-serif" font-size="14" lengthAdjust="spacing" textLength="146.2549" x="193.7979" y="1038.1">Compute (containers)</text><text fill="#000000" font-family="sans-serif" font-size="14" lengthAdjust="spacing" textLength="117.5098" x="21.4297" y="1054.5883">RDS / DynamoDB</text><text fill="#000000" font-family="sans-serif" font-size="14" lengthAdjust="spacing" textLength="121.9395" x="193.7979" y="1054.5883">Persistent storage</text><text fill="#000000" font-family="sans-serif" font-size="14" lengthAdjust="spacing" textLength="16.3926" x="21.4297" y="1071.0766">S3</text><text fill="#000000" font-family="sans-serif" font-size="14" lengthAdjust="spacing" textLength="99.5449" x="193.7979" y="1071.0766">Object storage</text><text fill="#000000" font-family="sans-serif" font-size="14" lengthAdjust="spacing" textLength="163.5088" x="21.4297" y="1087.5648">SQS / SNS / EventBridge</text><text fill="#000000" font-family="sans-serif" font-size="14" lengthAdjust="spacing" textLength="72.0576" x="193.7979" y="1087.5648">Messaging</text><text fill="#000000" font-family="sans-serif" font-size="14" lengthAdjust="spacing" textLength="93.3516" x="21.4297" y="1104.0531">Secrets / KMS</text><text fill="#000000" font-family="sans-serif" font-size="14" lengthAdjust="spacing" textLength="139.1182" x="193.7979" y="1104.0531">Secrets &amp; encryption</text><text fill="#000000" font-family="sans-serif" font-size="14" lengthAdjust="spacing" textLength="26.127" x="21.4297" y="1120.5414">ECR</text><text fill="#000000" font-family="sans-serif" font-size="14" lengthAdjust="spacing" textLength="122.3564" x="193.7979" y="1120.5414">Container registry</text><line style="stroke:#000000;stroke-width:1;" x1="17" x2="344.4824" y1="991.5883" y2="991.5883"/><line style="stroke:#000000;stroke-width:1;" x1="17" x2="344.4824" y1="1008.0766" y2="1008.0766"/><line style="stroke:#000000;stroke-width:1;" x1="17" x2="344.4824" y1="1024.5648" y2="1024.5648"/><line style="stroke:#000000;stroke-width:1;" x1="17" x2="344.4824" y1="1041.0531" y2="1041.0531"/><line style="stroke:#000000;stroke-width:1;" x1="17" x2="344.4824" y1="1057.5414" y2="1057.5414"/><line style="stroke:#000000;stroke-width:1;" x1="17" x2="344.4824" y1="1074.0297" y2="1074.0297"/><line style="stroke:#000000;stroke-width:1;" x1="17" x2="344.4824" y1="1090.518" y2="1090.518"/><line style="stroke:#000000;stroke-width:1;" x1="17" x2="344.4824" y1="1107.0063" y2="1107.0063"/><line style="stroke:#000000;stroke-width:1;" x1="17" x2="344.4824" y1="1123.4945" y2="1123.4945"/><line style="stroke:#000000;stroke-width:1;" x1="17" x2="17" y1="991.5883" y2="1123.4945"/><line style="stroke:#000000;stroke-width:1;" x1="189.3682" x2="189.3682" y1="991.5883" y2="1123.4945"/><line style="stroke:#000000;stroke-width:1;" x1="344.4824" x2="344.4824" y1="991.5883" y2="1123.4945"/></g><!--SRC=[ZLPDR-Cs4BthLmnoQ1mqNX-2Nd9OG9QT3yJnEbRQ5DZjWPOOXnk9L4ag6xVkV-yRIfQjf41wsAmyVFF9UJFqoXUIueUKRbLcZPFsHMNIKMop9-LbvcihQKXNQlr4C_aYYyWzArq9AqhAJ5aPBRLF_GP6BD12hmiPHOLyzEGDMQXvoXKVAQEZI6JUM3gQldffjIZeLpYa4IM5WfaZ4Yv8eYWhJ9tJqTBKNlvoHZy30S65DIqgcSoZpXyTFSGNGOp_eoZO70u_1n3-XMy-EVoEAf4zYpLqVriaH_HtH7HWBvwD4LMykAPBuUKFiGdM8Ut3vl5z3u3V4H2TwOLLBpYcj5vfwLtZXaYR78VJcnHPrGwL-AO7D_KA5P4UfIyFB-8a60RsK3D94Ts5i6iOX-w3iSz8-RjPESXNmcTFhLfog3OJvIeND9Y-eDRq97HUIDiwQCwYWCw55olXk0ob-CjeYcjhh83fvIIb0P8gXTqqUf2yrMd0Iobo_AaAbGctWou3rg45Gdac6orACndJO6xIkrbZSJ8P1zIVjQo1IU_WaXDi10q6mXvcplK8QOsjoc5wiAXN8rIzXS_JlkFqZ0QnSxYIKnhZikeA7nEaW3eyxtoSGUSVhiZNQRAaGOBM4qgZpakvLiwZ0dyqDUQilgOoix17jqB3XGr7hOoFRswHnbHdTbCn4HfL2FlzX5QagSuhexHtkDZq366rHJfbJwVqnazxppkTlhd0cGTk1n3ez-5IRBxfcLclbLwVqgtqLcN8-zuAz5cmysN5RITMgb1-4o7vOr25USny48_erF2b7EKoAuIL-N7422OLaoCw9YwJDGLLXT2Iq6EKN8-IoI5PWm0pvLBvgtf5SHWDtBa9sdIXAbcWp0tBh_kQiLqRgABtY_gL1Z3mfMeRkFbk8z2ojJaakPiqo0BbZJX-3fVPTqvNz_UBT2zBtijQqfpJmfhN3Tk_rgr5ZB-orkZlu2jYYwp193b7Yyuw2LeQaalfHulQTr8qOIT4vRyZvhqHRdluhDtJNZHlHAj2iJGv129dLvSoQgDz1n_j05mV31StRESBAVreHUU3EvsLYe90yhLqdP_t9tmvlIFtzEwekHMSnbLLRAWKMZrAXppRW_rDf1kTSNJexzfoztLfjmr_temKr_uSNCUtX4QJ9_jIV8WyBC-7u1s2qKpVSvh8m5yEiy-KNQmzAHGwZe5r7TEwUFyV-Y3cjmez7BVTVu6c6fC-apcLHYiCG92V4mZJxg8mFsZwAiggW8LkRtBlduVjPoL6BDzNdpQ7JmN6lUtRgMucSs7qUcXhhU4qhAStRGjE8NJN7B6enxXxl1umuWWRg0IA9_V0XF4fYXD-OwmbnWi_DJ3sjbiyJu9Wk-MVdCJeO853CkNDW4Wiksn07FOey7uB3fKLNXiqo7QJtfsqCAxjg9l442nmY1t0UtItL1eaIBrjoVpsv8vjl5zLMzmx9ySbQf5juur2s-r__qIoMo2x-46zBUrNasrN4uubhtSkI1HfWxHMndjJadaCOv0m6ddRE2neZw9WEePHaM4nph1hy98v2TDxzuHnpHE6gnFAXCKqFlaKxA1lEjhIfJNOfZGef72UAcWh3gCnDe-JcQD7l01RSti3hP-Pqiz8lBS8WyB7gv0dl7WnAkTqmbkAPBZhJrmBuY94_m80]--></g></svg>